# xmcd
#
# Track frame offsets:
#	150
#	12681
#	24179
#	40495
#	60699
#	80244
#	96944
#	110375
#	133018
#	152962
#	166525
#	178044
#
# Disc length: 2982 seconds
#
# Revision: 2
# Processed by: cddbd v1.4PL0 Copyright (c) Steve Scherf et al.
# Submitted via: audiograbber 1.81.02
#
DISCID=9b0ba40c
DTITLE=Gloria Deluxe - Hooker
DYEAR=1900
DGENRE=
TTITLE0=Down in the Mud
TTITLE1=Cheap Two-faced Star
TTITLE2=Little Piece of Grace
TTITLE3=One-legged Waltz
TTITLE4=Family Tree
TTITLE5=Such A Long Time
TTITLE6=Hospital Waiting Room Blues
TTITLE7=All Hang Down (parts 1 and 2)
TTITLE8=A Long Way Down
TTITLE9=Beyond My Wildest Dreams
TTITLE10=Once in the Mountans
TTITLE11=Heat of the Desert
EXTD=prodeced by Chris Bonner\ncopyright 2000 gloria delux music\nall rights re
EXTD=served\nP.O. Box 23061\nBrooklyn, NY 11202\nwww.gloriadelux.com
EXTT0=
EXTT1=
EXTT2=
EXTT3=
EXTT4=
EXTT5=
EXTT6=
EXTT7=
EXTT8=
EXTT9=
EXTT10=
EXTT11=
PLAYORDER=
